<svg xmlns="http://www.w3.org/2000/svg" viewBox="0 0 32 32" fill="none">
  <defs>
    <linearGradient id="bg" x1="2" y1="2" x2="30" y2="30" gradientUnits="userSpaceOnUse">
      <stop stop-color="#1e40af"/>
      <stop offset="0.5" stop-color="#2563eb"/>
      <stop offset="1" stop-color="#3b82f6"/>
    </linearGradient>
    <linearGradient id="face1" x1="4" y1="8" x2="16" y2="24" gradientUnits="userSpaceOnUse">
      <stop stop-color="#3b82f6"/>
      <stop offset="1" stop-color="#1e40af"/>
    </linearGradient>
    <linearGradient id="face2" x1="16" y1="8" x2="28" y2="24" gradientUnits="userSpaceOnUse">
      <stop stop-color="#2563eb"/>
      <stop offset="1" stop-color="#1e3a8a"/>
    </linearGradient>
    <linearGradient id="top" x1="8" y1="1" x2="24" y2="9" gradientUnits="userSpaceOnUse">
      <stop stop-color="#60a5fa"/>
      <stop offset="1" stop-color="#3b82f6"/>
    </linearGradient>
  </defs>
  <!-- Hexagon left face -->
  <path d="M3.34 8.5 L16 1 L16 16 L3.34 23.5 Z" fill="url(#face1)"/>
  <!-- Hexagon right face -->
  <path d="M16 1 L28.66 8.5 L28.66 23.5 L16 16 Z" fill="url(#face2)"/>
  <!-- Hexagon bottom faces -->
  <path d="M3.34 23.5 L16 16 L28.66 23.5 L16 31 Z" fill="#1e3a8a"/>
  <!-- Top highlight -->
  <path d="M16 1 L28.66 8.5 L16 16 L3.34 8.5 Z" fill="url(#top)" opacity="0.3"/>
  <!-- SS mark - top S -->
  <path d="M10 9 L16 9 L16 12.5 L10 12.5 L10 16 L16 16"
        stroke="#ffffff" stroke-width="2" stroke-linecap="square" stroke-linejoin="miter" fill="none" opacity="0.95"/>
  <!-- SS mark - bottom S -->
  <path d="M16 16 L22 16 L22 19.5 L16 19.5 L16 23 L22 23"
        stroke="#ffffff" stroke-width="2" stroke-linecap="square" stroke-linejoin="miter" fill="none" opacity="0.8"/>
</svg>
